<svg width="32" height="32" viewBox="0 0 32 32" fill="none" xmlns="http://www.w3.org/2000/svg">
<path d="M24.647 6.54399C23.9865 5.80904 23.1019 5.34008 22.1385 5.21419C21.6562 5.15322 21.1639 5.20627 20.6973 5.36949C20.2306 5.53271 19.8011 5.80204 19.4399 6.15806L17.6151 8.01358L7.49722 18.327C7.49722 18.327 7.49722 18.327 7.48002 18.3943C7.36852 18.5454 7.27253 18.7083 7.19372 18.8802C7.19372 18.8802 7.19372 18.8801 7.17307 18.9609L5.61891 24.2974C5.52763 24.6542 5.57359 25.0306 5.74668 25.3437C5.91978 25.6569 6.20583 25.8811 6.5419 25.967C6.75018 26.0191 6.96891 26.016 7.17878 25.9579L12.345 24.4985C12.4851 24.4581 12.6172 24.3896 12.7341 24.297C12.7739 24.2774 12.8117 24.2534 12.8469 24.2255L12.8675 24.1447L22.9854 13.8313L24.8067 11.9892C25.1579 11.6212 25.429 11.1776 25.6002 10.6907C25.7715 10.2038 25.8386 9.68594 25.7967 9.17473C25.7105 8.17743 25.3053 7.25008 24.647 6.54399ZM11.3497 21.9502L8.76264 22.722L9.53972 20.0537L18.4231 11.03L20.2331 12.9265L11.3497 21.9502ZM23.0186 10.1126L22.1488 10.9796L20.3559 9.01576L21.2292 8.13534C21.3073 8.07217 21.3966 8.02655 21.4914 8.00142C21.5862 7.97629 21.6844 7.9722 21.7796 7.98942C22.1463 8.03736 22.4818 8.21954 22.7279 8.50439C22.9834 8.7789 23.1433 9.13726 23.1827 9.52385C23.1929 9.62508 23.184 9.72803 23.1564 9.82676C23.1288 9.92549 23.0832 10.0181 23.022 10.0992L23.0186 10.1126Z" fill="white"/>
</svg>
