<svg width="32" height="32" viewBox="0 0 32 32" fill="none" xmlns="http://www.w3.org/2000/svg">
<path d="M11.0011 28.66H21.0011C21.6134 28.6613 22.22 28.5417 22.786 28.3079C23.3519 28.0742 23.8662 27.731 24.2992 27.298C24.7321 26.865 25.0753 26.3508 25.3091 25.7848C25.5428 25.2189 25.6624 24.6123 25.6611 24V12.46H26.3511C26.6163 12.46 26.8707 12.3546 27.0582 12.1671C27.2457 11.9795 27.3511 11.7252 27.3511 11.46V7.86997C27.3511 7.60475 27.2457 7.3504 27.0582 7.16286C26.8707 6.97532 26.6163 6.86997 26.3511 6.86997H21.3511V5.71997C21.3511 5.09391 21.1045 4.49305 20.6646 4.04757C20.2248 3.60209 19.6271 3.34786 19.0011 3.33997H13.0011C12.3699 3.33997 11.7645 3.59072 11.3182 4.03705C10.8718 4.48339 10.6211 5.08875 10.6211 5.71997V6.86997H5.62109C5.35588 6.86997 5.10152 6.97532 4.91399 7.16286C4.72645 7.3504 4.62109 7.60475 4.62109 7.86997V11.46C4.62109 11.7252 4.72645 11.9795 4.91399 12.1671C5.10152 12.3546 5.35588 12.46 5.62109 12.46H6.31109V24C6.30975 24.6148 6.43036 25.2239 6.66595 25.7918C6.90154 26.3598 7.24743 26.8753 7.6836 27.3087C8.11977 27.7421 8.63757 28.0847 9.20701 28.3166C9.77646 28.5486 10.3862 28.6653 11.0011 28.66ZM23.6611 24C23.6624 24.3497 23.5945 24.6961 23.4613 25.0195C23.3281 25.3428 23.1322 25.6366 22.8849 25.8838C22.6377 26.1311 22.3439 26.327 22.0206 26.4602C21.6973 26.5934 21.3508 26.6613 21.0011 26.66H11.0011C10.6514 26.6613 10.3049 26.5934 9.98159 26.4602C9.65827 26.327 9.36451 26.1311 9.11724 25.8838C8.86997 25.6366 8.67409 25.3428 8.54088 25.0195C8.40767 24.6961 8.33977 24.3497 8.34109 24V12.46H23.6611V24ZM12.6611 5.69997C12.6654 5.60923 12.702 5.52302 12.7644 5.45698C12.8268 5.39094 12.9107 5.34943 13.0011 5.33997H19.0011C19.1019 5.33997 19.1985 5.38 19.2698 5.45127C19.3411 5.52253 19.3811 5.61918 19.3811 5.71997V6.86997H12.6111L12.6611 5.69997ZM6.66109 8.84997H25.3611V10.44H6.65109L6.66109 8.84997Z" fill="white"/>
<path d="M16 24.5099C16.2652 24.5099 16.5196 24.4046 16.7071 24.217C16.8946 24.0295 17 23.7752 17 23.5099V14.9399C17 14.6747 16.8946 14.4204 16.7071 14.2328C16.5196 14.0453 16.2652 13.9399 16 13.9399C15.7348 13.9399 15.4804 14.0453 15.2929 14.2328C15.1054 14.4204 15 14.6747 15 14.9399V23.5099C15 23.7752 15.1054 24.0295 15.2929 24.217C15.4804 24.4046 15.7348 24.5099 16 24.5099Z" fill="white"/>
<path d="M11.6016 24.5099C11.8668 24.5099 12.1211 24.4046 12.3087 24.217C12.4962 24.0295 12.6016 23.7752 12.6016 23.5099V14.9399C12.6016 14.6747 12.4962 14.4204 12.3087 14.2328C12.1211 14.0453 11.8668 13.9399 11.6016 13.9399C11.3363 13.9399 11.082 14.0453 10.8945 14.2328C10.7069 14.4204 10.6016 14.6747 10.6016 14.9399V23.5099C10.6016 23.7752 10.7069 24.0295 10.8945 24.217C11.082 24.4046 11.3363 24.5099 11.6016 24.5099Z" fill="white"/>
<path d="M20.4023 24.5099C20.6676 24.5099 20.9219 24.4046 21.1095 24.217C21.297 24.0295 21.4023 23.7752 21.4023 23.5099V14.9399C21.4023 14.6747 21.297 14.4204 21.1095 14.2328C20.9219 14.0453 20.6676 13.9399 20.4023 13.9399C20.1371 13.9399 19.8828 14.0453 19.6952 14.2328C19.5077 14.4204 19.4023 14.6747 19.4023 14.9399V23.5099C19.4023 23.7752 19.5077 24.0295 19.6952 24.217C19.8828 24.4046 20.1371 24.5099 20.4023 24.5099Z" fill="white"/>
</svg>
